<svg t="1747464019283" class="icon" viewBox="0 0 1024 1024" version="1.1" xmlns="http://www.w3.org/2000/svg" p-id="21461" width="16" height="16"><path d="M128 128m42.666667 0l682.666666 0q42.666667 0 42.666667 42.666667l0 170.666666q0 42.666667-42.666667 42.666667l-682.666666 0q-42.666667 0-42.666667-42.666667l0-170.666666q0-42.666667 42.666667-42.666667Z" fill="#3B82F6" p-id="21462"></path><path d="M128 426.666667m42.666667 0l682.666666 0q42.666667 0 42.666667 42.666666l0 170.666667q0 42.666667-42.666667 42.666667l-682.666666 0q-42.666667 0-42.666667-42.666667l0-170.666667q0-42.666667 42.666667-42.666666Z" fill="#3B82F6" p-id="21463"></path><path d="M128 725.333333m42.666667 0l682.666666 0q42.666667 0 42.666667 42.666667l0 85.333333q0 42.666667-42.666667 42.666667l-682.666666 0q-42.666667 0-42.666667-42.666667l0-85.333333q0-42.666667 42.666667-42.666667Z" fill="#3B82F6" p-id="21464"></path><path d="M810.666667 256m-42.666667 0a42.666667 42.666667 0 1 0 85.333333 0 42.666667 42.666667 0 1 0-85.333333 0Z" fill="#FFFFFF" p-id="21465"></path><path d="M810.666667 554.666667m-42.666667 0a42.666667 42.666667 0 1 0 85.333333 0 42.666667 42.666667 0 1 0-85.333333 0Z" fill="#FFFFFF" p-id="21466"></path><path d="M810.666667 810.666667m-42.666667 0a42.666667 42.666667 0 1 0 85.333333 0 42.666667 42.666667 0 1 0-85.333333 0Z" fill="#FFFFFF" p-id="21467"></path></svg>